<svg xmlns="http://www.w3.org/2000/svg" viewBox="0 0 1920 1080"><defs><style>.a{fill:#161e2e;}.b,.c{fill:#252f3f;}.b,.f,.g,.m,.n,.o,.p{fill-rule:evenodd;}.d,.e,.h,.l{fill:none;stroke-linecap:round;}.d,.e,.h{stroke:#161e2e;}.d{stroke-width:1.29px;}.e{stroke-width:1.14px;}.f,.k{fill:#374151;}.g{fill:#4b5563;}.h{stroke-width:1.44px;}.i{fill:#fff;}.j,.m{fill:#ffb0b0;}.l{stroke:#d2d6dc;stroke-width:0.81px;}.n{fill:#4a90e2;}.o{fill:#1c64f2;}.p{fill:#3f83f8;}.q{stroke:#000;stroke-width:1.26px;}</style></defs><title>Artboard 1</title><rect class="a" width="1920" height="1080"/><path class="b" d="M100.11,313.77,242.45,950-23,949.45l.73-3.65-99.78-.19L-13.31,384.15h0l.72,3.47L40.22,623.4ZM-271.52,523.2-175.3,953l-179.32-.34ZM326,954,453.48,394.71l.55-2.18h0L560.58,954.4Z"/><path class="c" d="M1.11,949.49l99-635.72L-23,949.45Z"/><path class="d" d="M100.68,965.92l.12-65.85m.87-452.4-.14,74.24m-.38,194.83L65.69,662.31m35.46,54.43.19-95.41m-.19,95.41L101,820.53m.38-199L134.07,580m-32.73,41.53.19-99.6m0,0L78.6,491.77M101,820.53l52.62-48.24M101,820.53l-.16,79.72m0,0L65.35,837.43"/><path class="e" d="M451.28,969.33l.11-58.74m.77-399.68L452,576.4m-.33,172.2,31.47-47.91M451.7,748.6l.16-84.27m-.16,84.27-.17,91.58m.33-175.85L423.11,627.6m28.75,36.73L452,576.4m0,0,20.3-26.59m-20.8,290.37L405.27,797.4m46.26,42.78-.14,70.41m0,0,31.48-55.39"/><path class="f" d="M191.27,241.16,29.56,951l163.27.31-.19,1.28h.55l35.57.07h0l104.34.2,0,16.23a1.06,1.06,0,0,0,1.09,1.1,1.18,1.18,0,0,0,1.1-1.09l0-16.24,98.33.19h0l24.07.05L337.06,317h0L265.13,632.59ZM337.43,317ZM-182.21,465.73Zm-94,486.15,40.5.08-.18,1.09h.54l30.47.06h0l22.62,0,0,11.31a.86.86,0,0,0,.91.92.87.87,0,0,0,.91-.91l0-11.31,64.76.12,0,15a1.06,1.06,0,0,0,1.09,1.1,1.06,1.06,0,0,0,1.1-1.1l0-15,83.55.16h0l20.61,0h0L-112.42,410h0l-41.39,182L-182,465.55h0l-94.16,486.33Z"/><path class="g" d="M299,951.52,191.27,241.16,326,951.58Z"/><path class="b" d="M70.06,951.08,191.27,241.16,30.29,951Z"/><path class="h" d="M187.86,970.83,188,896m1-505.3-.16,82.82m-.42,217.62,39.88-60.48M188.4,691.18l.2-106.53m-.2,106.53L188.18,807m.42-222.19-36.21-46.58m36.21,46.58.22-111.09m0-.18,25.6-33.7M188.18,807l-58.46-53.93M188.18,807,188,896m0,0,39.9-70"/><path class="e" d="M331.09,865.32l.1-48m.62-326-.1,53.45m-.27,140.46L305.8,646m25.64,39.27.13-68.77m-.13,68.77-.14,74.79m.27-143.56,23.59-29.87M331.57,616.5l.14-71.69m0,0-16.56-21.74m16.15,237,37.82-34.77M331.3,760.06l-.11,57.46m0-.18-25.64-45.29"/><path class="f" d="M1920,627H1484s-13,0-3,6,5,7,10,10c14.19,8.52,8,7.37,20,21,5.79,6.6,16.68,5.2,29,14,7,5,23.8,2.38,43.87,10.59,18.13,7.41,39.51,8.22,46.43,10.06,12.33,3.27,28.7,1.35,36.28,11.62,4.57,6.19,14.28,5.8,21.24,9,12.47,5.72,28.44,8.08,35.38,19,6.8,10.72,23.39,16.61,32.23,26.18,16.24,17.59,25.13,38,21.57,61.54-15,99,267-71,222-129S1920,627,1920,627Z"/><path class="i" d="M960,914C430.48,914,1.11,808.39,0,678H0v402H1920V678h0C1918.89,808.39,1489.52,914,960,914Z"/><path class="j" d="M1673.26,323.33c2.35.66,2.76,5.51,3.15,6.79h-10.09s-.73-3.18.79-4.87A6.11,6.11,0,0,1,1673.26,323.33Z"/><path class="k" d="M1604,325.17l102,13.05c1.87-1.79,2.24-2.08,1.28-3.38l-99.71-24.33a2,2,0,0,0-1.53.24c-4.7,3-5.47,6.17-3.78,12.91A2,2,0,0,0,1604,325.17Z"/><path class="l" d="M1607.82,313c-2.42.94-4.68,6.25-2.58,9.18"/><path class="m" d="M1728,346.72s8.75-12.27-5.24-22.26-20.74,22.26-17.55,26.66c1.42,1.95,6,1.31,10.77,0,.22,4.17-.14,8.74-2.25,12.53l13-2.61V347.26C1727.55,346.93,1728,346.72,1728,346.72Zm-25.06,263,.74,9.31h-7.07l-1.49-11.54h7.82ZM1722.3,619l-1.49-9.68v-1.86h-7.08l1.49,11.54Z"/><path class="j" d="M1665.57,333l4.53.51s1.45.36,5.3-.28c2.83-.48,5.31-1.86,6.73-1.32,1.35.71-3.73,5.38-6.7,6.2l.07,13.23-5.66-1.88-.75-12.27h0a8.42,8.42,0,0,1-3.09-3.34Z"/><path class="b" d="M1693.9,379.27a54.36,54.36,0,0,0-3.42,20.57c.14,6.26.19,14.73-.27,21.17-.77,10.54-3.72,26.8-3.72,26.8h39.08l.38-.37c0-3.95-.48-8.11-.65-12.05-.26-5.74-.5-15.28.27-22.2,1.62-14.37,9.68-35.74,9.68-35.74S1731.9,357,1725.57,357c-4.26,0-14.1.69-23.28,11.15C1698.55,369.48,1695.81,374.25,1693.9,379.27Z"/><path class="c" d="M1696.42,386.63l-26-9-3-32,7.44.74a3.27,3.27,0,0,1,2.91,2.81l2.65,19.45,24,7Z"/><path class="m" d="M1640.9,327.7s-1.62-9.38-2.37-10c-1.91-1.5-1.26,3.54-1.26,3.54s-3.18-9.18-6.84-5.21c-1.58,1.72.46,7.69,2.12,10.27a35.33,35.33,0,0,0,3.82,4.1l2.41,3.23,4.15-1.68Z"/><path class="n" d="M1646.29,331.85l28.3,33.32s31.76.91,42.1-1.28c7.29-1.55,10.2,9.2,4.67,16.82-7.1,9.79-45-.38-54.22-3a5.62,5.62,0,0,1-3.13-2.3l-27.94-42.09C1637.92,331.15,1643.3,329,1646.29,331.85Z"/><path class="o" d="M1699.91,557.76,1713,613.43h11.17l-9.68-80.78s-1.12-22,6.7-36.11a45.3,45.3,0,0,0,4.56-13.1c7.85-17,.28-36,.28-36h-39.46s-5.71,24.82-8.19,42.06c-1.9,13.19-3.74,28.32-4.49,34.61a17.13,17.13,0,0,0,.35,5.93l19.77,83h11.17Z"/><path class="p" d="M1708.13,503.16C1737.65,470.5,1726,447.4,1726,447.4h-39.46s-5.71,24.82-8.19,42.06c-1.9,13.19-3.74,28.32-4.49,34.61a17.13,17.13,0,0,0,.35,5.93l19.78,83h11.16l-8.19-86Z"/><path class="q" d="M1723.54,622.88l-.5-5a11.75,11.75,0,0,1-7.07,0s-14.15,3-15.26,4.84c-.53.88.74,2.61.74,2.61h19.87A2.23,2.23,0,0,0,1723.54,622.88Z"/><path class="q" d="M1705,623.65l-.52-5.76c-3.19.84-4.68.74-7,0,0,0-14.07,3.28-15.18,5.33-.52,1,.74,2.86.74,2.86h19.77A2.23,2.23,0,0,0,1705,623.65Z"/><path class="k" d="M1741.28,333.78c-11.77-20.35-33.64-16.26-33.64-6.18,0,2.65,7.69,3.73,10.18,6.76,0,0-3.54,6.83-3.33,8.59.63,5.15,5,4.19,6.9,9,3.11,8,6.6,13.6,6.6,20.37,0,14.52-7.76,31.36,11.1,28.71,13.13-1.84,19.47-29.65,5.22-35.67C1738.69,363,1751.05,350.67,1741.28,333.78Z"/></svg>