<svg xmlns="http://www.w3.org/2000/svg" viewBox="0 0 1920 1080"><defs><style>.a{fill:#161e2e;}.b,.c{fill:#252f3f;}.b,.f,.g,.l,.m,.n,.o{fill-rule:evenodd;}.d,.e,.h,.k{fill:none;stroke-linecap:round;}.d,.e,.h{stroke:#161e2e;}.d{stroke-width:1.29px;}.e{stroke-width:1.14px;}.f,.j{fill:#374151;}.g{fill:#4b5563;}.h{stroke-width:1.44px;}.i,.l{fill:#ffb0b0;}.k{stroke:#d2d6dc;stroke-width:0.81px;}.m{fill:#4a90e2;}.n{fill:#1c64f2;}.o{fill:#3f83f8;}.p{stroke:#000;stroke-width:1.26px;}.q{fill:#233876;}.r{fill:#1a56db;}</style></defs><title>Artboard 1</title><rect class="a" width="1920" height="1080"/><path class="b" d="M98.8,364.58l142.34,636.19-265.42-.51.74-3.65-99.79-.19L-14.62,435h0l.72,3.47L38.92,674.22ZM-272.83,574l96.22,429.78-179.31-.35Zm597.51,430.74L452.17,445.53l.55-2.19h0l106.55,561.87Z"/><path class="c" d="M-.2,1000.31l99-635.73L-24.28,1000.26Z"/><path class="d" d="M99.37,1016.73l.12-65.85m.87-452.4-.14,74.25m-.37,194.82L64.38,713.12m35.47,54.43.18-95.41m-.18,95.41-.2,103.79m.38-199,32.73-41.53M100,672.33l.19-99.6m0,0L77.29,542.58M99.65,871.34l52.63-48.24M99.65,871.34l-.16,79.72m0,0L64,888.24"/><path class="e" d="M450,1020.14l.11-58.74m.77-399.68-.12,65.49m-.33,172.21,31.46-47.92M450.4,799.42l.16-84.28m-.16,84.28L450.22,891m.34-175.85-28.75-36.72m28.75,36.72.17-87.93m0,0L471,600.62M450.22,891,404,848.21M450.22,891l-.14,70.41m0,0L481.57,906"/><path class="f" d="M190,292,28.25,1001.82l163.27.31-.19,1.28h.55l35.57.07h0l104.34.2,0,16.23a1.06,1.06,0,0,0,1.1,1.1,1.17,1.17,0,0,0,1.09-1.09l0-16.24,98.33.19h0l24.08,0L335.75,367.77h0L263.82,683.4Zm146.16,75.81ZM-183.51,516.54Zm-94,486.15,40.49.08-.18,1.09h.55l30.46.06h0l22.62.05,0,11.31a.86.86,0,0,0,.91.91.86.86,0,0,0,.91-.91l0-11.31,64.76.12,0,15a1.06,1.06,0,0,0,1.1,1.1,1,1,0,0,0,1.09-1.09l0-15,83.55.16h0l20.61,0h0L-113.72,460.86h0l-41.4,182-28.21-126.47h0l-94.15,486.33Z"/><path class="g" d="M297.69,1002.34,190,292l134.72,710.42Z"/><path class="b" d="M68.75,1001.9,190,292,29,1001.82Z"/><path class="h" d="M186.55,1021.64l.15-74.79m1-505.3-.16,82.82M187.09,742,227,681.51M187.09,742l.21-106.53M187.09,742l-.22,115.84m.43-222.18-36.22-46.59m36.22,46.59.21-111.1m0-.18,25.6-33.7M186.87,857.83,128.42,803.9m58.45,53.93-.17,89m0,0,39.9-70"/><path class="e" d="M329.79,916.13l.09-48m.63-326-.11,53.45m-.27,140.46-25.64-39.27m25.64,39.27.14-68.77m-.14,68.77L330,810.87m.28-143.56,23.58-29.87m-23.58,29.87.13-71.69m0,0-16.56-21.74m16.15,237,37.83-34.76M330,810.87l-.11,57.47m0-.19-25.63-45.28"/><path class="f" d="M1920,627H1484s-13,0-3,6,5,7,10,10c14.19,8.52,8,7.37,20,21,5.79,6.6,16.68,5.2,29,14,7,5,23.8,2.38,43.87,10.59,18.13,7.41,39.51,8.22,46.43,10.06,12.33,3.27,28.7,1.35,36.28,11.62,4.57,6.19,14.28,5.8,21.24,9,12.47,5.72,28.44,8.08,35.38,19,6.8,10.72,23.39,16.61,32.23,26.18,16.24,17.59,25.13,38,21.57,61.54-15,99,267-71,222-129S1920,627,1920,627Z"/><path class="i" d="M1673.26,323.33c2.35.66,2.76,5.51,3.15,6.79h-10.09s-.73-3.18.79-4.87A6.11,6.11,0,0,1,1673.26,323.33Z"/><path class="j" d="M1604,325.17l102,13.05c1.87-1.79,2.24-2.08,1.28-3.38l-99.71-24.33a2,2,0,0,0-1.53.24c-4.7,3-5.47,6.17-3.78,12.91A2,2,0,0,0,1604,325.17Z"/><path class="k" d="M1607.82,313c-2.42.94-4.68,6.25-2.58,9.18"/><path class="l" d="M1728,346.72s8.75-12.27-5.24-22.26-20.74,22.26-17.55,26.66c1.42,1.95,6,1.31,10.77,0,.22,4.17-.14,8.74-2.25,12.53l13-2.61V347.26C1727.55,346.93,1728,346.72,1728,346.72Zm-25.06,263,.74,9.31h-7.07l-1.49-11.54h7.82ZM1722.3,619l-1.49-9.68v-1.86h-7.08l1.49,11.54Z"/><path class="i" d="M1665.57,333l4.53.51s1.45.36,5.3-.28c2.83-.48,5.31-1.86,6.73-1.32,1.35.71-3.73,5.38-6.7,6.2l.07,13.23-5.66-1.88-.75-12.27h0a8.42,8.42,0,0,1-3.09-3.34Z"/><path class="b" d="M1693.9,379.27a54.36,54.36,0,0,0-3.42,20.57c.14,6.26.19,14.73-.27,21.17-.77,10.54-3.72,26.8-3.72,26.8h39.08l.38-.37c0-3.95-.48-8.11-.65-12.05-.26-5.74-.5-15.28.27-22.2,1.62-14.37,9.68-35.74,9.68-35.74S1731.9,357,1725.57,357c-4.26,0-14.1.69-23.28,11.15C1698.55,369.48,1695.81,374.25,1693.9,379.27Z"/><path class="c" d="M1696.42,386.63l-26-9-3-32,7.44.74a3.27,3.27,0,0,1,2.91,2.81l2.65,19.45,24,7Z"/><path class="l" d="M1640.9,327.7s-1.62-9.38-2.37-10c-1.91-1.5-1.26,3.54-1.26,3.54s-3.18-9.18-6.84-5.21c-1.58,1.72.46,7.69,2.12,10.27a35.33,35.33,0,0,0,3.82,4.1l2.41,3.23,4.15-1.68Z"/><path class="m" d="M1646.29,331.85l28.3,33.32s31.76.91,42.1-1.28c7.29-1.55,10.2,9.2,4.67,16.82-7.1,9.79-45-.38-54.22-3a5.62,5.62,0,0,1-3.13-2.3l-27.94-42.09C1637.92,331.15,1643.3,329,1646.29,331.85Z"/><path class="n" d="M1699.91,557.76,1713,613.43h11.17l-9.68-80.78s-1.12-22,6.7-36.11a45.3,45.3,0,0,0,4.56-13.1c7.85-17,.28-36,.28-36h-39.46s-5.71,24.82-8.19,42.06c-1.9,13.19-3.74,28.32-4.49,34.61a17.13,17.13,0,0,0,.35,5.93l19.77,83h11.17Z"/><path class="o" d="M1708.13,503.16C1737.65,470.5,1726,447.4,1726,447.4h-39.46s-5.71,24.82-8.19,42.06c-1.9,13.19-3.74,28.32-4.49,34.61a17.13,17.13,0,0,0,.35,5.93l19.78,83h11.16l-8.19-86Z"/><path class="p" d="M1723.54,622.88l-.5-5a11.75,11.75,0,0,1-7.07,0s-14.15,3-15.26,4.84c-.53.88.74,2.61.74,2.61h19.87A2.23,2.23,0,0,0,1723.54,622.88Z"/><path class="p" d="M1705,623.65l-.52-5.76c-3.19.84-4.68.74-7,0,0,0-14.07,3.28-15.18,5.33-.52,1,.74,2.86.74,2.86h19.77A2.23,2.23,0,0,0,1705,623.65Z"/><path class="j" d="M1741.28,333.78c-11.77-20.35-33.64-16.26-33.64-6.18,0,2.65,7.69,3.73,10.18,6.76,0,0-3.54,6.83-3.33,8.59.63,5.15,5,4.19,6.9,9,3.11,8,6.6,13.6,6.6,20.37,0,14.52-7.76,31.36,11.1,28.71,13.13-1.84,19.47-29.65,5.22-35.67C1738.69,363,1751.05,350.67,1741.28,333.78Z"/><path class="q" d="M1958.39,726.48s-88.22,176.19-533.89,199.57-842.31-94.72-842.31-94.72-465-172.52-745.75,56.91l-11.89,415.49H2206.82Z"/><path class="r" d="M-79.44,1069.84s0-615.22,797.51-79.07c545.66,366.85,414.84-568.21,1403.36,1.9l27.68,682-2386.28-51.11Z"/></svg>