<svg xmlns="http://www.w3.org/2000/svg" viewBox="0 0 1851.52 1080"><defs><style>.a{fill:#161e2e;}.b{fill:#68d391;}.c{fill:#f6ad55;}.d,.e{fill:#f4f5f7;}.e{stroke:#f4f5f7;stroke-miterlimit:10;}.f{fill:#76a9fa;}</style></defs><title>Artboard 1</title><rect class="a" x="-43.89" y="-6.65" width="1932.57" height="1100.23"/><circle class="b" cx="57.05" cy="466.6" r="23.21"/><circle class="b" cx="519.78" cy="466.6" r="23.21"/><path class="c" d="M172.22,523.58a57,57,0,0,0,54.93-41.81H117.29A57,57,0,0,0,172.22,523.58Z"/><path class="d" d="M172.22,409.61a57,57,0,0,0-54.93,41.81H227.15A57,57,0,0,0,172.22,409.61Z"/><path class="b" d="M402.56,409.61a57,57,0,0,0-54.93,41.81h54.93v30.35H347.63a57,57,0,1,0,54.93-72.16Z"/><circle class="d" cx="287.39" cy="466.6" r="23.21"/><path class="c" d="M635,523.58a57,57,0,0,0,54.93-41.81H580A57,57,0,0,0,635,523.58Z"/><path class="e" d="M635,409.61A57,57,0,0,0,580,451.42H689.88A57,57,0,0,0,635,409.61Z"/><path class="b" d="M865.28,409.61a57,57,0,0,0-54.92,41.81h54.92v30.35H810.36a57,57,0,1,0,54.92-72.16Z"/><circle class="d" cx="750.12" cy="466.6" r="23.21"/><circle class="d" cx="868.4" cy="637.18" r="23.21"/><circle class="f" cx="752.94" cy="637.18" r="56.99"/><circle class="f" cx="637.48" cy="637.18" r="23.21"/><circle class="d" cx="406.56" cy="637.18" r="23.21"/><circle class="f" cx="291.1" cy="637.18" r="56.99"/><circle class="f" cx="175.63" cy="637.18" r="23.21"/><path class="d" d="M60.17,580.19a57,57,0,1,0,57,57A57,57,0,0,0,60.17,580.19Zm0,80.2a23.21,23.21,0,1,1,23.21-23.21A23.21,23.21,0,0,1,60.17,660.39Z"/><path class="d" d="M522,580.19a57,57,0,1,0,57,57A57,57,0,0,0,522,580.19Zm0,80.2a23.21,23.21,0,1,1,23.21-23.21A23.21,23.21,0,0,1,522,660.39Z"/><path class="c" d="M291.1,655.39a18.21,18.21,0,1,1,18.2-18.21A18.23,18.23,0,0,1,291.1,655.39Z"/><path class="a" d="M291.1,624a13.21,13.21,0,1,1-13.21,13.21A13.22,13.22,0,0,1,291.1,624m0-10a23.21,23.21,0,1,0,23.2,23.21A23.21,23.21,0,0,0,291.1,614Z"/><path class="c" d="M752.94,655.39a18.21,18.21,0,1,1,18.21-18.21A18.23,18.23,0,0,1,752.94,655.39Z"/><path class="a" d="M752.94,624a13.21,13.21,0,1,1-13.21,13.21A13.22,13.22,0,0,1,752.94,624m0-10a23.21,23.21,0,1,0,23.21,23.21A23.21,23.21,0,0,0,752.94,614Z"/><circle class="b" cx="53.87" cy="116.62" r="23.21"/><circle class="b" cx="516.6" cy="116.62" r="23.21"/><path class="c" d="M169,173.6A57,57,0,0,0,224,131.79H114.11A57,57,0,0,0,169,173.6Z"/><path class="d" d="M169,59.63a57,57,0,0,0-54.93,41.81H224A57,57,0,0,0,169,59.63Z"/><path class="b" d="M399.37,59.63a57,57,0,0,0-54.93,41.81h54.93v30.35H344.44a57,57,0,1,0,54.93-72.16Z"/><circle class="d" cx="284.2" cy="116.62" r="23.21"/><path class="c" d="M631.76,173.6a57,57,0,0,0,54.93-41.81H576.84A57,57,0,0,0,631.76,173.6Z"/><path class="e" d="M631.76,59.63a57,57,0,0,0-54.92,41.81H686.69A57,57,0,0,0,631.76,59.63Z"/><path class="b" d="M862.1,59.63a57,57,0,0,0-54.93,41.81H862.1v30.35H807.17A57,57,0,1,0,862.1,59.63Z"/><circle class="d" cx="746.93" cy="116.62" r="23.21"/><circle class="d" cx="865.22" cy="287.2" r="23.21"/><circle class="f" cx="749.76" cy="287.2" r="56.99"/><circle class="f" cx="634.29" cy="287.2" r="23.21"/><circle class="d" cx="403.37" cy="287.2" r="23.21"/><circle class="f" cx="287.91" cy="287.2" r="56.99"/><circle class="f" cx="172.45" cy="287.2" r="23.21"/><path class="d" d="M57,230.21a57,57,0,1,0,57,57A57,57,0,0,0,57,230.21Zm0,80.2A23.21,23.21,0,1,1,80.2,287.2,23.21,23.21,0,0,1,57,310.41Z"/><path class="d" d="M518.83,230.21a57,57,0,1,0,57,57A57,57,0,0,0,518.83,230.21Zm0,80.2A23.21,23.21,0,1,1,542,287.2,23.21,23.21,0,0,1,518.83,310.41Z"/><path class="c" d="M287.91,305.41a18.21,18.21,0,1,1,18.21-18.21A18.23,18.23,0,0,1,287.91,305.41Z"/><path class="a" d="M287.91,274A13.21,13.21,0,1,1,274.7,287.2,13.22,13.22,0,0,1,287.91,274m0-10a23.21,23.21,0,1,0,23.21,23.21A23.21,23.21,0,0,0,287.91,264Z"/><path class="c" d="M749.75,305.41A18.21,18.21,0,1,1,768,287.2,18.22,18.22,0,0,1,749.75,305.41Z"/><path class="a" d="M749.76,274a13.21,13.21,0,1,1-13.21,13.21A13.22,13.22,0,0,1,749.76,274m0-10A23.21,23.21,0,1,0,773,287.2,23.21,23.21,0,0,0,749.76,264Z"/><circle class="b" cx="984.21" cy="466.6" r="23.21"/><circle class="b" cx="1446.94" cy="466.6" r="23.21"/><path class="c" d="M1099.38,523.58a57,57,0,0,0,54.93-41.81H1044.45A57,57,0,0,0,1099.38,523.58Z"/><path class="d" d="M1099.38,409.61a57,57,0,0,0-54.93,41.81h109.86A57,57,0,0,0,1099.38,409.61Z"/><path class="b" d="M1329.71,409.61a57,57,0,0,0-54.92,41.81h54.92v30.35h-54.92a57,57,0,1,0,54.92-72.16Z"/><circle class="d" cx="1214.55" cy="466.6" r="23.21"/><path class="c" d="M1562.11,523.58A57,57,0,0,0,1617,481.77H1507.18A57,57,0,0,0,1562.11,523.58Z"/><path class="e" d="M1562.11,409.61a57,57,0,0,0-54.93,41.81H1617A57,57,0,0,0,1562.11,409.61Z"/><path class="b" d="M1792.44,409.61a57,57,0,0,0-54.93,41.81h54.93v30.35h-54.93a57,57,0,1,0,54.93-72.16Z"/><circle class="d" cx="1677.28" cy="466.6" r="23.21"/><circle class="d" cx="1795.56" cy="637.18" r="23.21"/><circle class="f" cx="1680.1" cy="637.18" r="56.99"/><circle class="f" cx="1564.64" cy="637.18" r="23.21"/><circle class="d" cx="1333.72" cy="637.18" r="23.21"/><circle class="f" cx="1218.25" cy="637.18" r="56.99"/><circle class="f" cx="1102.79" cy="637.18" r="23.21"/><path class="d" d="M987.33,580.19a57,57,0,1,0,57,57A57,57,0,0,0,987.33,580.19Zm0,80.2a23.21,23.21,0,1,1,23.21-23.21A23.21,23.21,0,0,1,987.33,660.39Z"/><path class="d" d="M1449.18,580.19a57,57,0,1,0,57,57A57,57,0,0,0,1449.18,580.19Zm0,80.2a23.21,23.21,0,1,1,23.21-23.21A23.21,23.21,0,0,1,1449.18,660.39Z"/><path class="c" d="M1218.25,655.39a18.21,18.21,0,1,1,18.21-18.21A18.22,18.22,0,0,1,1218.25,655.39Z"/><path class="a" d="M1218.25,624a13.21,13.21,0,1,1-13.2,13.21,13.22,13.22,0,0,1,13.2-13.21m0-10a23.21,23.21,0,1,0,23.21,23.21A23.21,23.21,0,0,0,1218.25,614Z"/><path class="c" d="M1680.1,655.39a18.21,18.21,0,1,1,18.21-18.21A18.23,18.23,0,0,1,1680.1,655.39Z"/><path class="a" d="M1680.1,624a13.21,13.21,0,1,1-13.21,13.21A13.22,13.22,0,0,1,1680.1,624m0-10a23.21,23.21,0,1,0,23.21,23.21A23.21,23.21,0,0,0,1680.1,614Z"/><circle class="b" cx="981.03" cy="116.62" r="23.21"/><circle class="b" cx="1443.76" cy="116.62" r="23.21"/><path class="c" d="M1096.19,173.6a57,57,0,0,0,54.93-41.81H1041.27A57,57,0,0,0,1096.19,173.6Z"/><path class="d" d="M1096.19,59.63a57,57,0,0,0-54.92,41.81h109.85A57,57,0,0,0,1096.19,59.63Z"/><path class="b" d="M1326.53,59.63a57,57,0,0,0-54.93,41.81h54.93v30.35H1271.6a57,57,0,1,0,54.93-72.16Z"/><circle class="d" cx="1211.36" cy="116.62" r="23.21"/><path class="c" d="M1558.92,173.6a57,57,0,0,0,54.93-41.81H1504A57,57,0,0,0,1558.92,173.6Z"/><path class="e" d="M1558.92,59.63A57,57,0,0,0,1504,101.44h109.86A57,57,0,0,0,1558.92,59.63Z"/><path class="b" d="M1789.26,59.63a57,57,0,0,0-54.93,41.81h54.93v30.35h-54.93a57,57,0,1,0,54.93-72.16Z"/><circle class="d" cx="1674.09" cy="116.62" r="23.21"/><circle class="d" cx="1792.38" cy="287.2" r="23.21"/><circle class="f" cx="1676.91" cy="287.2" r="56.99"/><circle class="f" cx="1561.45" cy="287.2" r="23.21"/><circle class="d" cx="1330.53" cy="287.2" r="23.21"/><circle class="f" cx="1215.07" cy="287.2" r="56.99"/><circle class="f" cx="1099.61" cy="287.2" r="23.21"/><path class="d" d="M984.15,230.21a57,57,0,1,0,57,57A57,57,0,0,0,984.15,230.21Zm0,80.2a23.21,23.21,0,1,1,23.21-23.21A23.21,23.21,0,0,1,984.15,310.41Z"/><path class="d" d="M1446,230.21a57,57,0,1,0,57,57A57,57,0,0,0,1446,230.21Zm0,80.2a23.21,23.21,0,1,1,23.21-23.21A23.21,23.21,0,0,1,1446,310.41Z"/><path class="c" d="M1215.07,305.41a18.21,18.21,0,1,1,18.21-18.21A18.23,18.23,0,0,1,1215.07,305.41Z"/><path class="a" d="M1215.07,274a13.21,13.21,0,1,1-13.21,13.21A13.22,13.22,0,0,1,1215.07,274m0-10a23.21,23.21,0,1,0,23.21,23.21A23.21,23.21,0,0,0,1215.07,264Z"/><path class="c" d="M1676.91,305.41a18.21,18.21,0,1,1,18.21-18.21A18.22,18.22,0,0,1,1676.91,305.41Z"/><path class="a" d="M1676.91,274a13.21,13.21,0,1,1-13.2,13.21,13.22,13.22,0,0,1,13.2-13.21m0-10a23.21,23.21,0,1,0,23.21,23.21A23.21,23.21,0,0,0,1676.91,264Z"/><circle class="b" cx="53.87" cy="792.8" r="23.21"/><circle class="b" cx="516.6" cy="792.8" r="23.21"/><path class="c" d="M169,849.79A57,57,0,0,0,224,808H114.11A57,57,0,0,0,169,849.79Z"/><path class="d" d="M169,735.82a57,57,0,0,0-54.93,41.81H224A57,57,0,0,0,169,735.82Z"/><path class="b" d="M399.37,735.82a57,57,0,0,0-54.93,41.81h54.93V808H344.44a57,57,0,1,0,54.93-72.16Z"/><circle class="d" cx="284.2" cy="792.8" r="23.21"/><path class="c" d="M631.76,849.79A57,57,0,0,0,686.69,808H576.84A57,57,0,0,0,631.76,849.79Z"/><path class="e" d="M631.76,735.82a57,57,0,0,0-54.92,41.81H686.69A57,57,0,0,0,631.76,735.82Z"/><path class="b" d="M862.1,735.82a57,57,0,0,0-54.93,41.81H862.1V808H807.17a57,57,0,1,0,54.93-72.16Z"/><circle class="d" cx="746.93" cy="792.8" r="23.21"/><circle class="d" cx="865.22" cy="963.38" r="23.21"/><circle class="f" cx="749.76" cy="963.38" r="56.99"/><circle class="f" cx="634.29" cy="963.38" r="23.21"/><circle class="d" cx="403.37" cy="963.38" r="23.21"/><circle class="f" cx="287.91" cy="963.38" r="56.99"/><circle class="f" cx="172.45" cy="963.38" r="23.21"/><path class="d" d="M57,906.4a57,57,0,1,0,57,57A57,57,0,0,0,57,906.4Zm0,80.19A23.21,23.21,0,1,1,80.2,963.38,23.21,23.21,0,0,1,57,986.59Z"/><path class="d" d="M518.83,906.4a57,57,0,1,0,57,57A57,57,0,0,0,518.83,906.4Zm0,80.19A23.21,23.21,0,1,1,542,963.38,23.21,23.21,0,0,1,518.83,986.59Z"/><path class="c" d="M287.91,981.59a18.21,18.21,0,1,1,18.21-18.21A18.23,18.23,0,0,1,287.91,981.59Z"/><path class="a" d="M287.91,950.18a13.21,13.21,0,1,1-13.21,13.2,13.22,13.22,0,0,1,13.21-13.2m0-10a23.21,23.21,0,1,0,23.21,23.2,23.21,23.21,0,0,0-23.21-23.2Z"/><path class="c" d="M749.75,981.59A18.21,18.21,0,1,1,768,963.38,18.22,18.22,0,0,1,749.75,981.59Z"/><path class="a" d="M749.76,950.18a13.21,13.21,0,1,1-13.21,13.2,13.21,13.21,0,0,1,13.21-13.2m0-10a23.21,23.21,0,1,0,23.2,23.2,23.21,23.21,0,0,0-23.2-23.2Z"/><circle class="b" cx="981.03" cy="792.8" r="23.21"/><circle class="b" cx="1443.76" cy="792.8" r="23.21"/><path class="c" d="M1096.19,849.79A57,57,0,0,0,1151.12,808H1041.27A57,57,0,0,0,1096.19,849.79Z"/><path class="d" d="M1096.19,735.82a57,57,0,0,0-54.92,41.81h109.85A57,57,0,0,0,1096.19,735.82Z"/><path class="b" d="M1326.53,735.82a57,57,0,0,0-54.93,41.81h54.93V808H1271.6a57,57,0,1,0,54.93-72.16Z"/><circle class="d" cx="1211.36" cy="792.8" r="23.21"/><path class="c" d="M1558.92,849.79A57,57,0,0,0,1613.85,808H1504A57,57,0,0,0,1558.92,849.79Z"/><path class="e" d="M1558.92,735.82A57,57,0,0,0,1504,777.63h109.86A57,57,0,0,0,1558.92,735.82Z"/><path class="b" d="M1789.26,735.82a57,57,0,0,0-54.93,41.81h54.93V808h-54.93a57,57,0,1,0,54.93-72.16Z"/><circle class="d" cx="1674.09" cy="792.8" r="23.21"/><circle class="d" cx="1792.38" cy="963.38" r="23.21"/><circle class="f" cx="1676.91" cy="963.38" r="56.99"/><circle class="f" cx="1561.45" cy="963.38" r="23.21"/><circle class="d" cx="1330.53" cy="963.38" r="23.21"/><circle class="f" cx="1215.07" cy="963.38" r="56.99"/><circle class="f" cx="1099.61" cy="963.38" r="23.21"/><path class="d" d="M984.15,906.4a57,57,0,1,0,57,57A57,57,0,0,0,984.15,906.4Zm0,80.19a23.21,23.21,0,1,1,23.21-23.21A23.21,23.21,0,0,1,984.15,986.59Z"/><path class="d" d="M1446,906.4a57,57,0,1,0,57,57A57,57,0,0,0,1446,906.4Zm0,80.19a23.21,23.21,0,1,1,23.21-23.21A23.21,23.21,0,0,1,1446,986.59Z"/><path class="c" d="M1215.07,981.59a18.21,18.21,0,1,1,18.21-18.21A18.23,18.23,0,0,1,1215.07,981.59Z"/><path class="a" d="M1215.07,950.18a13.21,13.21,0,1,1-13.21,13.2,13.22,13.22,0,0,1,13.21-13.2m0-10a23.21,23.21,0,1,0,23.21,23.2,23.21,23.21,0,0,0-23.21-23.2Z"/><path class="c" d="M1676.91,981.59a18.21,18.21,0,1,1,18.21-18.21A18.22,18.22,0,0,1,1676.91,981.59Z"/><path class="a" d="M1676.91,950.18a13.21,13.21,0,1,1-13.2,13.2,13.22,13.22,0,0,1,13.2-13.2m0-10a23.21,23.21,0,1,0,23.21,23.2,23.2,23.2,0,0,0-23.21-23.2Z"/></svg>