<?xml version="1.0" encoding="utf-8"?>
<!-- Generator: Adobe Illustrator 24.0.0, SVG Export Plug-In . SVG Version: 6.00 Build 0)  -->
<svg version="1.1" id="Layer_1" xmlns="http://www.w3.org/2000/svg" xmlns:xlink="http://www.w3.org/1999/xlink" x="0px" y="0px"
	 viewBox="0 0 1920 397.1" style="enable-background:new 0 0 1920 397.1;" xml:space="preserve">
<style type="text/css">
	.st0{fill:#1C64F2;}
	.st1{fill:#1A56DB;}
	.st2{fill:#233876;}
	.st3{fill:#161E2E;}
</style>
<title>bottom-divider</title>
<path class="st0" d="M0,238c0,0,304.9-217.9,607.8-62.7c408.9,209.4,370.1-357,1324.2,93.4V467l-2092.6-24.3L0,238z"/>
<path class="st1" d="M-345.1,571.1c0,0,584.4-543.3,848.3-343.4c236.3,178.9,447-209,865.3-25.5c187.8,82.4,429.2,20.3,551.5-52
	c131.7-77.9,79.3-126.3,213.6,24.6l-185.9,297.3l-2027-5.1L-345.1,571.1z"/>
<path class="st2" d="M-117.8,409.7c0,0,505.4-273.9,869-187.8c352.4,83.5,554-49.5,841.9-51.2c260.5-1.5,341.1,147.1,385.9,194
	c48.5,50.7-46.9,206.5-46.9,206.5l-2129.2-14.4L-117.8,409.7z"/>
<path class="st3" d="M-84.4,162.4c406.1,415,324.5-135.3,896.7,115.8c324.3,142.3,462.8-175.8,760.5-74.3
	c363.1,123.6,359.3,119.9,506.4,12.2l-56.2,382l-2159.9-58.2C-136.9,539.9-109.8,136.5-84.4,162.4z"/>
</svg>
