<svg xmlns="http://www.w3.org/2000/svg" viewBox="0 0 1920 397.06"><defs><style>.a{fill:#1c64f2;}.b{fill:#1a56db;}.c{fill:#233876;}.d{fill:#161e2e;}</style></defs><title>bottom-divider</title><path class="a" d="M0,238S304.91,20.14,607.83,175.27c408.88,209.38,370.1-357,1324.24,93.4V467L-160.48,442.68Z"/><path class="b" d="M-345.09,571.14S239.28,27.84,503.2,227.72c236.26,178.93,447.05-209,865.27-25.5,187.79,82.39,429.25,20.33,551.53-52,131.69-77.91,79.28-126.34,213.58,24.63L1947.69,472.11-79.27,467Z"/><path class="c" d="M-117.77,409.73s505.44-273.92,869-187.81c352.41,83.49,554-49.5,841.86-51.21,260.52-1.54,341.08,147.09,385.89,194,48.49,50.73-46.88,206.45-46.88,206.45L-197.11,556.73Z"/><path class="d" d="M-84.44,162.41c406.06,415,324.53-135.3,896.72,115.81,324.33,142.33,462.77-175.75,760.53-74.34,363.07,123.65,359.26,119.92,506.4,12.24l-56.24,382L-136.91,539.94S-109.75,136.54-84.44,162.41Z"/></svg>