<?xml version="1.0" encoding="utf-8"?>
<!-- Generator: Adobe Illustrator 24.0.0, SVG Export Plug-In . SVG Version: 6.00 Build 0)  -->
<svg version="1.1" xmlns="http://www.w3.org/2000/svg" xmlns:xlink="http://www.w3.org/1999/xlink" x="0px" y="0px"
	 viewBox="0 0 177.01 27.49" style="enable-background:new 0 0 177.01 27.49;" xml:space="preserve">
<style type="text/css">
	.st0{fill:#374151;}
</style>
<g id="Layer_1">
	<g>
		<path class="st0" d="M51.94,12.22c0-1.37-0.61-2.35-2.19-2.35c-1.37,0-2.5,0.91-3.05,1.71v9.94h-3.9v-9.3
			c0-1.37-0.61-2.35-2.2-2.35c-1.34,0-2.47,0.91-3.05,1.74v9.91h-3.87V6.8h3.87v1.92c0.61-0.88,2.56-2.29,4.82-2.29
			c2.16,0,3.54,1.01,4.08,2.68c0.85-1.34,2.8-2.68,5.06-2.68c2.71,0,4.33,1.43,4.33,4.45v10.64h-3.9V12.22z"/>
		<path class="st0" d="M77.92,12.22c0-1.37-0.61-2.35-2.19-2.35c-1.37,0-2.5,0.91-3.05,1.71v9.94h-3.9v-9.3
			c0-1.37-0.61-2.35-2.2-2.35c-1.34,0-2.47,0.91-3.05,1.74v9.91h-3.87V6.8h3.87v1.92c0.61-0.88,2.56-2.29,4.82-2.29
			c2.16,0,3.54,1.01,4.08,2.68c0.85-1.34,2.8-2.68,5.06-2.68c2.71,0,4.33,1.43,4.33,4.45v10.64h-3.9V12.22z"/>
		<path class="st0" d="M84.7,14.14c0-4.18,2.93-7.71,7.77-7.71c4.88,0,7.8,3.54,7.8,7.71c0,4.21-2.93,7.74-7.8,7.74
			C87.63,21.89,84.7,18.35,84.7,14.14z M96.26,14.14c0-2.29-1.37-4.27-3.78-4.27c-2.41,0-3.75,1.98-3.75,4.27
			c0,2.32,1.34,4.3,3.75,4.3C94.89,18.44,96.26,16.46,96.26,14.14z"/>
		<path class="st0" d="M113.09,12.62c0-2.04-1.07-2.74-2.71-2.74c-1.52,0-2.71,0.85-3.35,1.74v9.91h-3.87V6.8h3.87v1.92
			c0.94-1.13,2.74-2.29,5.15-2.29c3.23,0,4.79,1.83,4.79,4.69v10.39h-3.87V12.62z"/>
		<path class="st0" d="M129.65,20c-1.01,1.19-2.74,1.89-4.66,1.89c-2.35,0-5.12-1.58-5.12-4.88c0-3.44,2.77-4.69,5.12-4.69
			c1.95,0,3.69,0.61,4.66,1.8v-2.04c0-1.49-1.28-2.47-3.23-2.47c-1.58,0-3.05,0.58-4.3,1.74l-1.46-2.59
			c1.8-1.58,4.12-2.32,6.43-2.32c3.35,0,6.43,1.34,6.43,5.58v9.51h-3.87V20z M129.65,16.15c-0.64-0.85-1.86-1.28-3.11-1.28
			c-1.52,0-2.77,0.79-2.77,2.23c0,1.37,1.25,2.16,2.77,2.16c1.25,0,2.47-0.43,3.11-1.28V16.15z"/>
		<path class="st0" d="M137.37,1.19h3.87v20.33h-3.87V1.19z"/>
		<path class="st0" d="M144.69,2.32c0-1.28,1.07-2.32,2.32-2.32c1.28,0,2.32,1.04,2.32,2.32c0,1.28-1.04,2.32-2.32,2.32
			C145.76,4.63,144.69,3.6,144.69,2.32z M145.09,6.8h3.87v14.72h-3.87V6.8z"/>
		<path class="st0" d="M153.57,17.86v-7.68h-2.44V6.8h2.44V2.77h3.9V6.8h2.99v3.38h-2.99v6.64c0,0.91,0.49,1.62,1.34,1.62
			c0.58,0,1.13-0.21,1.34-0.43l0.82,2.93c-0.58,0.52-1.62,0.95-3.23,0.95C155.03,21.89,153.57,20.48,153.57,17.86z"/>
		<path class="st0" d="M164.39,24.05c1.01,0,1.68-0.27,2.04-1.07l0.55-1.25L161.01,6.8h4.14L169,17.04l3.84-10.24h4.17l-6.92,17.13
			c-1.1,2.77-3.05,3.51-5.58,3.57c-0.46,0-1.43-0.09-1.92-0.21l0.58-3.47C163.51,23.96,164.03,24.05,164.39,24.05z"/>
	</g>
	<g>
		<path class="st0" d="M10.06,16.5c-1.65,1.65-4.53,1.33-5.72-0.94c-0.5-0.97-0.51-2.17-0.01-3.14c0.68-1.34,1.95-2.01,3.22-2.01
			c0.91,0,1.82,0.35,2.52,1.04l1.07,1.07c0.39,0.39,1.02,0.39,1.41,0l1.4-1.39c0.39-0.39,0.39-1.03,0-1.42l-1.08-1.07
			C9.57,5.36,3.98,5.76,1.25,9.83c-1.67,2.49-1.66,5.84,0.02,8.33c1.51,2.24,3.9,3.35,6.28,3.35c1.93,0,3.85-0.73,5.32-2.19
			l1.07-1.06c0.39-0.39,0.39-1.02,0-1.42l-1.39-1.39c-0.39-0.39-1.02-0.39-1.41,0L10.06,16.5z"/>
		<path class="st0" d="M28.48,8.54c-2.99-2.87-7.81-2.61-10.75,0.32l-4.43,4.42c-0.39,0.39-0.39,1.02,0,1.42l1.39,1.39
			c0.39,0.39,1.02,0.39,1.41,0l4.51-4.5c1.4-1.39,3.8-1.51,5.19-0.11c0.66,0.67,1.02,1.56,1.02,2.5c0,0.94-0.36,1.83-1.02,2.5
			c-1.38,1.41-3.79,1.29-5.18-0.1l-0.81-0.81c-0.52-0.52-1.15-0.52-1.54-0.13l-1.4,1.39c-0.39,0.39-0.39,1.03,0,1.42l0.87,0.86
			c2.94,2.92,7.75,3.18,10.74,0.31c1.5-1.44,2.32-3.37,2.32-5.44C30.81,11.91,29.98,9.97,28.48,8.54z"/>
	</g>
</g>
</svg>
