<?xml version="1.0" encoding="utf-8"?>
<!-- Generator: Adobe Illustrator 24.0.0, SVG Export Plug-In . SVG Version: 6.00 Build 0)  -->
<svg version="1.1" id="Layer_1" xmlns="http://www.w3.org/2000/svg" xmlns:xlink="http://www.w3.org/1999/xlink" x="0px" y="0px"
	 viewBox="0 0 177 27.5" style="enable-background:new 0 0 177 27.5;" xml:space="preserve">
<style type="text/css">
	.st0{fill:#FFF;}
</style>
<g id="Layer_1_1_">
	<g>
		<path class="st0" d="M51.9,12.2c0-1.4-0.6-2.3-2.2-2.3c-1.4,0-2.5,0.9-3,1.7v9.9h-3.9v-9.3c0-1.4-0.6-2.3-2.2-2.3
			c-1.3,0-2.5,0.9-3,1.7v9.9h-3.9V6.8h3.9v1.9c0.6-0.9,2.6-2.3,4.8-2.3c2.2,0,3.5,1,4.1,2.7c0.8-1.3,2.8-2.7,5.1-2.7
			c2.7,0,4.3,1.4,4.3,4.4v10.6h-3.9C51.9,21.5,51.9,12.2,51.9,12.2z"/>
		<path class="st0" d="M77.9,12.2c0-1.4-0.6-2.3-2.2-2.3c-1.4,0-2.5,0.9-3.1,1.7v9.9h-3.9v-9.3c0-1.4-0.6-2.3-2.2-2.3
			c-1.3,0-2.5,0.9-3,1.7v9.9h-3.9V6.8h3.9v1.9c0.6-0.9,2.6-2.3,4.8-2.3c2.2,0,3.5,1,4.1,2.7c0.8-1.3,2.8-2.7,5.1-2.7
			c2.7,0,4.3,1.4,4.3,4.4v10.6h-3.9V12.2z"/>
		<path class="st0" d="M84.7,14.1c0-4.2,2.9-7.7,7.8-7.7c4.9,0,7.8,3.5,7.8,7.7c0,4.2-2.9,7.7-7.8,7.7
			C87.6,21.9,84.7,18.4,84.7,14.1z M96.3,14.1c0-2.3-1.4-4.3-3.8-4.3c-2.4,0-3.8,2-3.8,4.3c0,2.3,1.3,4.3,3.8,4.3
			C94.9,18.4,96.3,16.5,96.3,14.1z"/>
		<path class="st0" d="M113.1,12.6c0-2-1.1-2.7-2.7-2.7c-1.5,0-2.7,0.9-3.3,1.7v9.9h-3.9V6.8h3.9v1.9c0.9-1.1,2.7-2.3,5.2-2.3
			c3.2,0,4.8,1.8,4.8,4.7v10.4h-3.9L113.1,12.6L113.1,12.6z"/>
		<path class="st0" d="M129.6,20c-1,1.2-2.7,1.9-4.7,1.9c-2.3,0-5.1-1.6-5.1-4.9c0-3.4,2.8-4.7,5.1-4.7c1.9,0,3.7,0.6,4.7,1.8v-2
			c0-1.5-1.3-2.5-3.2-2.5c-1.6,0-3.1,0.6-4.3,1.7l-1.5-2.6c1.8-1.6,4.1-2.3,6.4-2.3c3.3,0,6.4,1.3,6.4,5.6v9.5h-3.9V20z M129.6,16.1
			c-0.6-0.9-1.9-1.3-3.1-1.3c-1.5,0-2.8,0.8-2.8,2.2c0,1.4,1.2,2.2,2.8,2.2c1.2,0,2.5-0.4,3.1-1.3V16.1z"/>
		<path class="st0" d="M137.4,1.2h3.9v20.3h-3.9V1.2z"/>
		<path class="st0" d="M144.7,2.3c0-1.3,1.1-2.3,2.3-2.3c1.3,0,2.3,1,2.3,2.3s-1,2.3-2.3,2.3C145.8,4.6,144.7,3.6,144.7,2.3z
			 M145.1,6.8h3.9v14.7h-3.9V6.8z"/>
		<path class="st0" d="M153.6,17.9v-7.7h-2.4V6.8h2.4v-4h3.9v4h3v3.4h-3v6.6c0,0.9,0.5,1.6,1.3,1.6c0.6,0,1.1-0.2,1.3-0.4l0.8,2.9
			c-0.6,0.5-1.6,1-3.2,1C155,21.9,153.6,20.5,153.6,17.9z"/>
		<path class="st0" d="M164.4,24c1,0,1.7-0.3,2-1.1l0.6-1.2l-6-14.9h4.1L169,17l3.8-10.2h4.2l-6.9,17.1c-1.1,2.8-3.1,3.5-5.6,3.6
			c-0.5,0-1.4-0.1-1.9-0.2l0.6-3.5C163.5,24,164,24,164.4,24z"/>
	</g>
	<g>
		<path class="st0" d="M10.1,16.5c-1.6,1.6-4.5,1.3-5.7-0.9c-0.5-1-0.5-2.2,0-3.1c0.7-1.3,2-2,3.2-2c0.9,0,1.8,0.4,2.5,1l1.1,1.1
			c0.4,0.4,1,0.4,1.4,0l1.4-1.4c0.4-0.4,0.4-1,0-1.4l-1.1-1.1C9.6,5.4,4,5.8,1.2,9.8c-1.7,2.5-1.7,5.8,0,8.3
			c1.5,2.2,3.9,3.4,6.3,3.4c1.9,0,3.8-0.7,5.3-2.2l1.1-1.1c0.4-0.4,0.4-1,0-1.4l-1.4-1.4c-0.4-0.4-1-0.4-1.4,0L10.1,16.5z"/>
		<path class="st0" d="M28.5,8.5c-3-2.9-7.8-2.6-10.8,0.3l-4.4,4.4c-0.4,0.4-0.4,1,0,1.4l1.4,1.4c0.4,0.4,1,0.4,1.4,0l4.5-4.5
			c1.4-1.4,3.8-1.5,5.2-0.1c0.7,0.7,1,1.6,1,2.5s-0.4,1.8-1,2.5c-1.4,1.4-3.8,1.3-5.2-0.1l-0.8-0.8c-0.5-0.5-1.1-0.5-1.5-0.1
			l-1.4,1.4c-0.4,0.4-0.4,1,0,1.4l0.9,0.9c2.9,2.9,7.8,3.2,10.7,0.3C30,18,30.8,16,30.8,14C30.8,11.9,30,10,28.5,8.5z"/>
	</g>
</g>
<g id="Layer_2_1_">
</g>
</svg>
