<svg xmlns="http://www.w3.org/2000/svg" viewBox="0 0 1920 1080"><defs><style>.a{fill:#161e2e;}.b,.c{fill:#252f3f;}.b,.f,.g,.l,.m,.n,.o{fill-rule:evenodd;}.d,.e,.h,.k{fill:none;stroke-linecap:round;}.d,.e,.h{stroke:#161e2e;}.d{stroke-width:1.29px;}.e{stroke-width:1.14px;}.f,.j{fill:#374151;}.g{fill:#4b5563;}.h{stroke-width:1.44px;}.i,.l{fill:#ffb0b0;}.k{stroke:#d2d6dc;stroke-width:0.81px;}.m{fill:#4a90e2;}.n,.t{fill:#1c64f2;}.o{fill:#3f83f8;}.p{stroke:#000;stroke-width:1.26px;}.q{fill:#51473c;}.r{fill:#233876;}.s{fill:#1a56db;}.u{fill:#f4f5f7;}</style></defs><title>commonality-hero</title><rect class="a" width="1920" height="1080"/><path class="b" d="M138.86,366,281.2,1002.19l-265.42-.51.74-3.65-99.78-.19L25.44,436.38h0l.73,3.46L79,675.63ZM-232.76,575.43l96.22,429.78-179.32-.34Zm597.5,430.75,127.5-559.24.55-2.19h0l106.54,561.88Z"/><path class="c" d="M39.86,1001.72l99-635.72L15.78,1001.68Z"/><path class="d" d="M139.43,1018.15l.13-65.85m.87-452.4-.14,74.24M139.91,769l-35.47-54.42M139.91,769l.19-95.4m-.19,95.4-.2,103.8m.39-199,32.73-41.53M140.1,673.74l.19-99.6m0,0L117.36,544m22.35,328.76,52.63-48.24m-52.63,48.24-.15,79.72m0,0-35.45-62.82"/><path class="e" d="M490,1021.56l.11-58.74m.77-399.68-.13,65.49m-.33,172.2,31.47-47.91m-31.47,47.91.16-84.27m-.16,84.27-.18,91.58m.34-175.85-28.75-36.73m28.75,36.73.17-87.93m0,0L511.09,602M490.28,892.41,444,849.63m46.25,42.78-.13,70.41m0,0,31.48-55.39"/><path class="f" d="M230,293.39,68.32,1003.24l163.26.31-.18,1.28H232l35.57.07h0l104.34.2,0,16.23a1.05,1.05,0,0,0,1.09,1.1,1.18,1.18,0,0,0,1.1-1.09l0-16.24,98.32.19h0l24.08.05L375.82,369.19h0L303.89,684.82Zm146.15,75.8ZM-143.45,518Zm-94,486.15,40.5.08-.19,1.09h.55l30.47.06h0l22.62,0,0,11.31a.87.87,0,0,0,.91.92.87.87,0,0,0,.92-.91l0-11.31,64.76.12,0,15a1.06,1.06,0,0,0,1.09,1.1,1.06,1.06,0,0,0,1.1-1.1l0-15,83.54.17h0l20.62,0h0L-73.66,462.27h0l-41.39,182-28.22-126.47h0l-94.15,486.33Z"/><path class="g" d="M337.75,1003.75,230,293.39l134.72,710.42Z"/><path class="b" d="M108.82,1003.31,230,293.39l-161,709.85Z"/><path class="h" d="M226.62,1023.06l.14-74.79m1-505.3-.16,82.82m-.42,217.62L267,682.93m-39.88,60.48.2-106.53m-.2,106.53-.23,115.84m.43-222.19-36.21-46.58m36.21,46.58L227.58,526m0-.18,25.6-33.7M226.93,859.25l-58.45-53.93m58.45,53.93-.17,89m0,0,39.91-70"/><path class="e" d="M369.85,917.55l.09-48m.63-326-.1,53.45M370.2,737.5l-25.65-39.27M370.2,737.5l.13-68.77m-.13,68.77-.15,74.79m.28-143.56,23.59-29.87m-23.59,29.87.14-71.69m0,0L353.91,575.3m16.14,237,37.83-34.77m-37.83,34.77-.11,57.46m0-.18-25.63-45.29"/><path class="e" d="M22.84,1036.61,23,977.87m.77-399.68-.12,65.49m-.34,172.21L54.73,768M23.26,815.89l.17-84.28m-.17,84.28-.17,91.57m.34-175.85L-5.32,694.89m28.75,36.72.17-87.93m0,0,20.3-26.59M23.09,907.46l-46.25-42.78m46.25,42.78L23,977.87m0,0,31.49-55.39"/><path class="f" d="M1992.55,586.42h-436s-13,0-3,6,5,7,10,10c14.19,8.51,8,7.37,20,21,5.79,6.6,16.68,5.2,29,14,7,5,23.8,2.37,43.87,10.58,18.13,7.42,39.51,8.23,46.43,10.06,12.32,3.28,28.7,1.36,36.28,11.62,4.57,6.2,14.28,5.8,21.23,9,12.48,5.71,28.45,8.07,35.39,19,6.8,10.73,23.38,16.62,32.22,26.19,16.25,17.58,25.14,38,21.58,61.54-15,99,267-71,222-129S1992.55,586.42,1992.55,586.42Z"/><path class="i" d="M1745.8,282.75c2.36.65,2.77,5.5,3.15,6.78h-10.09s-.72-3.18.8-4.86A6.1,6.1,0,0,1,1745.8,282.75Z"/><path class="j" d="M1676.56,284.59l102,13.05c1.87-1.79,2.23-2.08,1.28-3.38l-99.72-24.34a2,2,0,0,0-1.52.24c-4.7,3-5.47,6.17-3.78,12.92A2,2,0,0,0,1676.56,284.59Z"/><path class="k" d="M1680.36,272.46c-2.41.94-4.67,6.25-2.58,9.18"/><path class="l" d="M1800.55,306.14s8.74-12.27-5.25-22.27-20.74,22.27-17.54,26.67c1.42,1.94,6,1.3,10.77,0,.21,4.16-.14,8.74-2.25,12.53l13-2.61V306.67Zm-25.06,263,.74,9.31h-7.07l-1.49-11.54h7.82Zm19.35,9.31-1.49-9.68v-1.86h-7.07l1.49,11.54Z"/><path class="i" d="M1738.11,292.41l4.54.5s1.44.37,5.3-.28c2.83-.47,5.31-1.85,6.73-1.31,1.35.71-3.74,5.37-6.71,6.19l.08,13.24-5.67-1.88-.74-12.28h0a8.33,8.33,0,0,1-3.09-3.33Z"/><path class="b" d="M1766.45,338.68a54.43,54.43,0,0,0-3.42,20.57c.14,6.26.19,14.73-.28,21.17C1762,391,1759,407.23,1759,407.23h39.09l.37-.38c0-3.94-.47-8.1-.65-12-.25-5.74-.5-15.28.28-22.2,1.61-14.37,9.68-35.74,9.68-35.74s-3.35-20.47-9.68-20.47c-4.27,0-14.1.69-23.29,11.14C1771.09,328.89,1768.35,333.67,1766.45,338.68Z"/><path class="c" d="M1769,346l-26-9-3-32,7.44.75a3.25,3.25,0,0,1,2.9,2.8L1753,328l24,7Z"/><path class="l" d="M1713.45,287.12s-1.63-9.39-2.37-10c-1.91-1.51-1.26,3.54-1.26,3.54s-3.18-9.18-6.84-5.21c-1.58,1.72.46,7.69,2.12,10.27a35.33,35.33,0,0,0,3.82,4.1l2.41,3.23,4.15-1.68Z"/><path class="m" d="M1718.84,291.26l28.3,33.33s31.76.91,42.1-1.29c7.29-1.55,10.2,9.21,4.67,16.83-7.1,9.78-45.05-.39-54.22-3a5.58,5.58,0,0,1-3.13-2.3l-27.94-42.09C1710.47,290.57,1715.85,288.37,1718.84,291.26Z"/><path class="n" d="M1772.45,517.17l13.09,55.67h11.16L1787,492.06s-1.12-22,6.7-36.11a45.39,45.39,0,0,0,4.56-13.1c7.84-17,.28-36,.28-36h-39.46s-5.72,24.81-8.19,42.06c-1.9,13.19-3.74,28.31-4.49,34.61a16.69,16.69,0,0,0,.35,5.93l19.77,83.05h11.17Z"/><path class="o" d="M1780.67,462.57c29.52-32.65,17.9-55.75,17.9-55.75h-39.46s-5.71,24.81-8.19,42.06c-1.9,13.19-3.74,28.31-4.49,34.61a16.69,16.69,0,0,0,.35,5.93l19.77,83.05h11.17l-8.19-86Z"/><path class="p" d="M1796.09,582.3l-.5-5a11.86,11.86,0,0,1-7.08,0s-14.14,3-15.26,4.84c-.52.87.75,2.6.75,2.6h19.86A2.23,2.23,0,0,0,1796.09,582.3Z"/><path class="p" d="M1777.5,583.06l-.52-5.75c-3.2.83-4.69.74-7,0,0,0-14.06,3.28-15.17,5.32-.53,1,.74,2.87.74,2.87h19.76A2.24,2.24,0,0,0,1777.5,583.06Z"/><path class="q" d="M1813.83,293.2c-11.77-20.35-33.65-16.26-33.65-6.18,0,2.65,7.69,3.72,10.19,6.76,0,0-3.55,6.82-3.33,8.59.63,5.14,5,4.19,6.9,9,3.11,8,6.6,13.59,6.6,20.36,0,14.52-7.76,31.37,11.09,28.72,13.14-1.84,19.47-29.65,5.23-35.67C1811.24,322.44,1823.59,310.08,1813.83,293.2Z"/><path class="r" d="M-108.73,859.07S255.74,690.7,648.63,851s680.29,8.05,680.29,8.05,487.81-260.67,854.32,58.71l224.13,393.59-2721.17-57.2Z"/><path class="s" d="M2394.19,1019.29c-343.37-298.14-749.46-254.18-944-121-111.43,76.3.66,124.27-764.94-33.11-596.19-122.56-978,179.9-978,179.9l-110.75,342,3116.7,21Z"/><path class="t" d="M-302.09,1171.06c1070.66-770.84,894.25,85.62,1457-267.3,529.07-331.82,1315.76,372,1315.76,372l242.59,271L-646,1585.47S-494.18,1309.36-302.09,1171.06Z"/><path class="u" d="M-142.41,912.82s91.8,47.95,465.19,81.26c420.62,37.53,627.06-134.83,1169.12-66.56,525.89,66.23,868-62.6,868-62.6l10.55,720.55H-646Z"/></svg>