<svg xmlns="http://www.w3.org/2000/svg" xmlns:xlink="http://www.w3.org/1999/xlink" width="572" height="267" viewBox="0 0 572 267">
  <defs>
    <path id="path-1" fill-rule="evenodd" d="M22 16h532c3.31149015 0 6 2.68850985 6 6v55.0000115c0 3.31149015-2.68850985 6-6 6H22c-3.31149015 0-6-2.68850985-6-6V22c0-3.31149015 2.68850985-6 6-6z"/>
    <filter id="filter-2" width="200%" height="200%" x="-50%" y="-50%" color-interpolation-filters="sRGB" filterUnits="userSpaceOnUse">
      <feOffset dx="0" dy="1" in="SourceAlpha" result="shadow-1-feOffset-shadow"/>
      <feGaussianBlur in="shadow-1-feOffset-shadow" result="shadow-1-feGaussianBlur-shadow" stdDeviation="1.205"/>
      <feColorMatrix in="shadow-1-feGaussianBlur-shadow" result="shadow-1-feColorMatrix-shadow" type="matrix" values="0 0 0 0 0  0 0 0 0 0  0 0 0 0 0  0 0 0 0.06 0"/>
      <feOffset dx="0" dy="1" in="SourceAlpha" result="shadow-2-feOffset-shadow"/>
      <feGaussianBlur in="shadow-2-feOffset-shadow" result="shadow-2-feGaussianBlur-shadow" stdDeviation="1.807"/>
      <feColorMatrix in="shadow-2-feGaussianBlur-shadow" result="shadow-2-feColorMatrix-shadow" type="matrix" values="0 0 0 0 0  0 0 0 0 0  0 0 0 0 0  0 0 0 0.1 0"/>
      <feMerge>
        <feMergeNode in="shadow-1-feColorMatrix-shadow"/>
        <feMergeNode in="shadow-2-feColorMatrix-shadow"/>
      </feMerge>
    </filter>
    <path id="path-3" fill-rule="evenodd" d="M157 99.00001425h397c3.31149015 0 6 2.68850985 6 6v55.00002043c0 3.31149015-2.68850985 6-6 6H157c-3.31149015 0-6-2.68850985-6-6v-55.00002043c0-3.31149015 2.68850985-6 6-6z"/>
    <filter id="filter-4" width="200%" height="200%" x="-50%" y="-50%" color-interpolation-filters="sRGB" filterUnits="userSpaceOnUse">
      <feOffset dx="0" dy="1" in="SourceAlpha" result="shadow-1-feOffset-shadow"/>
      <feGaussianBlur in="shadow-1-feOffset-shadow" result="shadow-1-feGaussianBlur-shadow" stdDeviation="1.205"/>
      <feColorMatrix in="shadow-1-feGaussianBlur-shadow" result="shadow-1-feColorMatrix-shadow" type="matrix" values="0 0 0 0 0  0 0 0 0 0  0 0 0 0 0  0 0 0 0.06 0"/>
      <feOffset dx="0" dy="1" in="SourceAlpha" result="shadow-2-feOffset-shadow"/>
      <feGaussianBlur in="shadow-2-feOffset-shadow" result="shadow-2-feGaussianBlur-shadow" stdDeviation="1.807"/>
      <feColorMatrix in="shadow-2-feGaussianBlur-shadow" result="shadow-2-feColorMatrix-shadow" type="matrix" values="0 0 0 0 0  0 0 0 0 0  0 0 0 0 0  0 0 0 0.1 0"/>
      <feMerge>
        <feMergeNode in="shadow-1-feColorMatrix-shadow"/>
        <feMergeNode in="shadow-2-feColorMatrix-shadow"/>
      </feMerge>
    </filter>
    <path id="path-5" fill-rule="evenodd" d="M157 182.00003956h397c3.31149015 0 6 2.68850986 6 6V243.00006c0 3.31149015-2.68850985 6-6 6H157c-3.31149015 0-6-2.68850985-6-6v-55.00002044c0-3.31149014 2.68850985-6 6-6z"/>
    <filter id="filter-6" width="200%" height="200%" x="-50%" y="-50%" color-interpolation-filters="sRGB" filterUnits="userSpaceOnUse">
      <feOffset dx="0" dy="1" in="SourceAlpha" result="shadow-1-feOffset-shadow"/>
      <feGaussianBlur in="shadow-1-feOffset-shadow" result="shadow-1-feGaussianBlur-shadow" stdDeviation="1.205"/>
      <feColorMatrix in="shadow-1-feGaussianBlur-shadow" result="shadow-1-feColorMatrix-shadow" type="matrix" values="0 0 0 0 0  0 0 0 0 0  0 0 0 0 0  0 0 0 0.06 0"/>
      <feOffset dx="0" dy="1" in="SourceAlpha" result="shadow-2-feOffset-shadow"/>
      <feGaussianBlur in="shadow-2-feOffset-shadow" result="shadow-2-feGaussianBlur-shadow" stdDeviation="1.807"/>
      <feColorMatrix in="shadow-2-feGaussianBlur-shadow" result="shadow-2-feColorMatrix-shadow" type="matrix" values="0 0 0 0 0  0 0 0 0 0  0 0 0 0 0  0 0 0 0.1 0"/>
      <feMerge>
        <feMergeNode in="shadow-1-feColorMatrix-shadow"/>
        <feMergeNode in="shadow-2-feColorMatrix-shadow"/>
      </feMerge>
    </filter>
    <rect id="rect-12" width="19" height="19" x="175" y="123"/>
    <mask id="mask-13" maskContentUnits="userSpaceOnUse" maskUnits="userSpaceOnUse">
      <rect width="572" height="267" x="0" y="0" fill="black"/>
      <use fill="white" xlink:href="#rect-12"/>
    </mask>
    <path id="path-17" fill-rule="evenodd" d="M175 206v19.00000067h18.5188179V206H175z"/>
    <mask id="mask-18" maskContentUnits="userSpaceOnUse" maskUnits="userSpaceOnUse">
      <rect width="572" height="267" x="0" y="0" fill="black"/>
      <use fill="white" xlink:href="#path-17"/>
    </mask>
    <path id="path-19" fill-rule="evenodd" d="M175 206v19.00000067h18.5188179V206H175z"/>
    <mask id="mask-20" maskContentUnits="userSpaceOnUse" maskUnits="userSpaceOnUse">
      <rect width="572" height="267" x="0" y="0" fill="black"/>
      <use fill="white" xlink:href="#path-19"/>
    </mask>
  </defs>
  <g>
    <use fill="black" stroke="black" stroke-opacity="0" stroke-width="0" filter="url(#filter-2)" xlink:href="#path-1"/>
    <use fill="rgb(255,255,255)" xlink:href="#path-1"/>
  </g>
  <g>
    <use fill="black" stroke="black" stroke-opacity="0" stroke-width="0" filter="url(#filter-4)" xlink:href="#path-3"/>
    <use fill="rgb(255,255,255)" xlink:href="#path-3"/>
  </g>
  <g>
    <use fill="black" stroke="black" stroke-opacity="0" stroke-width="0" filter="url(#filter-6)" xlink:href="#path-5"/>
    <use fill="rgb(255,255,255)" xlink:href="#path-5"/>
  </g>
  <text font-size="0" style="white-space:pre">
    <tspan x="40" y="54" fill="rgb(75,85,99)" font-family="Proxima Nova" font-size="16" font-weight="600" style="white-space:pre;text-transform:none">Increase customer life time value</tspan>
  </text>
  <text font-size="0" style="white-space:pre">
    <tspan x="202" y="137" fill="rgb(75,85,99)" font-family="Proxima Nova" font-size="16" font-weight="600" style="white-space:pre;text-transform:none">Decrease chrun rate by 4%</tspan>
  </text>
  <g>
    <text font-size="0" style="white-space:pre">
      <tspan x="482.209" y="137" fill="rgb(75,85,99)" font-family="Proxima Nova" font-size="14" font-weight="400" style="white-space:pre;text-transform:none">Off trac</tspan>
    </text>
    <ellipse cx="472.06" cy="132.5" fill="rgb(236,201,75)" rx="4.06" ry="4"/>
  </g>
  <text font-size="0" style="white-space:pre">
    <tspan x="202" y="219" fill="rgb(75,85,99)" font-family="Proxima Nova" font-size="16" font-weight="600" style="white-space:pre;text-transform:none">Increase retention rate by 6%</tspan>
  </text>
  <g>
    <text font-size="0" style="white-space:pre">
      <tspan x="468" y="220" fill="rgb(107,114,128)" font-family="Proxima Nova" font-size="14" font-weight="400" style="white-space:pre;text-transform:none">Completed</tspan>
    </text>
    <ellipse cx="458" cy="215.5" fill="rgb(72,187,120)" rx="4" ry="4"/>
  </g>
  <path fill="rgb(195,221,253)" fill-rule="evenodd" d="M477 40h56c1.65574507 0 3 1.34425493 3 3v13c0 1.65574507-1.34425493 3-3 3h-56c-1.65574507 0-3-1.34425493-3-3V43c0-1.65574507 1.34425493-3 3-3z"/>
  <text font-size="0" style="white-space:pre">
    <tspan x="482.116" y="53" fill="rgb(26,86,219)" font-family="Proxima Nova" font-size="12" font-weight="600" style="white-space:pre;text-transform:none">On track</tspan>
  </text>
  <path fill-opacity="0" fill-rule="evenodd" stroke="rgb(210,214,220)" stroke-linecap="round" stroke-linejoin="miter" stroke-width="3" d="M135 135h-32c-2.209139 0-4-1.790861-4-4V99"/>
  <path fill-opacity="0" fill-rule="evenodd" stroke="rgb(210,214,220)" stroke-linecap="round" stroke-linejoin="miter" stroke-width="3" d="M135 218h-32c-2.209139 0-4-1.790861-4-4v-32"/>
  <g>
    <use fill="none" xlink:href="#rect-12"/>
    <g mask="url(#mask-13)">
      <path fill="rgb(249,171,0)" fill-rule="evenodd" d="M188.06255255 125.2670423v14.24998575c0 1.59448704 1.10114132 2.48295206 2.26705565 2.48295206 1.07955032 0 2.26705566-.75568106 2.26705566-2.48295206v-14.14203132c0-1.46170308-1.07955031-2.37499762-2.26705566-2.37499762-1.18750534 0-2.26705565 1.0072149-2.26705565 2.26704319z"/>
      <g>
        <path fill="rgb(227,116,0)" fill-rule="evenodd" d="M182.12502583 132.4999896v7.01703845c0 1.59448704 1.10114132 2.48295206 2.26705565 2.48295206 1.07955032 0 2.26705566-.75568106 2.26705566-2.48295206v-6.909084c0-1.46170309-1.07955031-2.37499763-2.26705566-2.37499763-1.18750534 0-2.26705565 1.0072149-2.26705565 2.26704319z"/>
        <ellipse cx="178.455" cy="139.733" fill="rgb(227,116,0)" rx="2.267" ry="2.267"/>
      </g>
    </g>
  </g>
  <g>
    <use fill="none" xlink:href="#path-17"/>
    <g mask="url(#mask-18)">
      <use fill="none" xlink:href="#path-19"/>
      <g mask="url(#mask-20)">
        <path fill="rgb(255,122,89)" fill-rule="evenodd" d="M189.19732534 210.08264444v2.23905723h-.0035516c2.06329078.31332333 3.71149184 1.8527089 4.13431344 3.8613722.4228252 2.00866241-.46867452 4.06406118-2.23621744 5.15572955-1.7675393 1.09166748-4.03930892.98996136-5.69846829-.25511808l-1.85519493 1.8226523c.0480135.14787808.07354314.30191124.07576877.45711577 0 .88328399-.72882684 1.59932482-1.62788502 1.59932482-.89905456 0-1.62788501-.71604083-1.62788501-1.59932482 0-.88328398.72883045-1.5993266 1.62788501-1.5993266.15797234.00225226.31474515.0273358.46527827.07444132l1.87532672-1.8424247c-1.18236278-1.6525801-1.2129073-3.84821722-.07695746-5.5319259l-6.16228328-4.71306947c-.82683017.46625764-1.87370808.2942136-2.50107392-.41102611-.62736945-.7052404-.66073575-1.74752792-.0797178-2.49010676.58101794-.74257885 1.61482392-.97891488 2.46984292-.56462532.85501539.41428956 1.29344164 1.36397813 1.04742709 2.26888021l6.26765357 4.79565366c.68371098-.5401694 1.50055475-.89327533 2.36783275-1.02356937v-2.24370993c-.61574997-.28253973-1.01042248-.88862287-1.01343213-1.55628985v-.05234169c.00260138-.9516006.78715192-1.72239001 1.7557464-1.72494642h.05327767c.96859086.00255641 1.75314502.77334581 1.7557464 1.72494642v.05234169c-.00300965.66766698-.39768217 1.27375012-1.01343213 1.55628985zm-3.33272026 7.08977494c-.00239543 1.39208874 1.14386237 2.52274726 2.56080808 2.52595791l.00591814.0011634c.68074108 0 1.33359682-.26567915 1.81495305-.73858905.48135624-.47291167.75177678-1.11431597.75177678-1.78311285.00065035-1.39209052-1.14702376-2.52136113-2.56396948-2.52285642-1.41694932-.00149617-2.56709113 1.12534826-2.56948657 2.517437z"/>
      </g>
    </g>
  </g>
  <path fill-opacity="0" fill-rule="evenodd" stroke="rgb(210,214,220)" stroke-linecap="round" stroke-linejoin="round" stroke-width="3" d="M99 109v91.5"/>
  <ellipse cx="14" cy="14" fill="rgb(255,255,255)" rx="12" ry="12"/>
  <path fill="rgb(63,131,248)" fill-rule="evenodd" d="M16 0C7.16322708 0 0 7.16322708 0 16c0 8.83677673 7.16322708 16 16 16 8.83677673 0 16-7.16322327 16-16 0-8.83677292-7.16322327-16-16-16zm3.88193512 18.86451721l4.25613022-9.31290436c.4909668-1.07419204-.61548233-2.18064499-1.6896782-1.69032287L13.1361313 12.1174202c-.45038224.20586395-.81155777.56703949-1.01742173 1.0174179l-4.2567749 9.31290436c-.4909668 1.07419205.61613083 2.18128968 1.69032288 1.69032288l9.31225967-4.25613022c.45037842-.20586395.81155396-.56703949 1.01741791-1.0174179zm-5.34129334-4.3245201c-.80644989.8064537-.80644989 2.11354827 0 2.9193573.80580903.80644988 2.11354828.80644988 2.9193573 0 .8064499-.80645371.8064499-2.11354829 0-2.9193573-.8064537-.80580522-2.11354827-.80580522-2.9193573 0z"/>
</svg>
